<!--?xml version="1.0" encoding="utf-8"?-->
<!-- Generator: Adobe Illustrator 18.1.1, SVG Export Plug-In . SVG Version: 6.00 Build 0)  -->

<svg version="1.1" id="_x31_0" xmlns="http://www.w3.org/2000/svg" xmlns:xlink="http://www.w3.org/1999/xlink" x="0px" y="0px" viewBox="0 0 512 512" style="width: 64px; height: 64px; opacity: 1;" xml:space="preserve">
<style type="text/css">
	.st0{fill:#374149;}
</style>
<g>
	<path class="st0" d="M389.777,250.619c-67.319,0-121.884,54.562-121.884,121.881s54.565,121.885,121.884,121.885
		S511.658,439.819,511.658,372.5S457.096,250.619,389.777,250.619z M448.819,382.142l-0.104,14.311l-26.773-24.688l-18.304-17.019
		v0.142l-0.158-0.142v84.211h-27.496v-84.211l-27.034,24.977l-18.219,16.685l-0.085-35.889l59.13-54.477l59.042,54.477V382.142z" style="fill: rgb(75, 75, 75);"></path>
	<path class="st0" d="M261.934,466.315H54.85c-4.804,0-8.823-3.938-8.823-8.823V54.43c0-4.803,4.019-8.742,8.823-8.742h228.669
		c4.881,0,8.819,3.938,8.819,8.742v51.2c0,9.216,7.485,16.7,16.7,16.7h51.2c4.804,0,8.742,3.939,8.742,8.823v73.866l-0.023,10.104
		c0.008,0,0.015-0.004,0.023-0.004v0.158c6.777-0.946,13.785-1.415,20.796-1.415c7.935,0,15.646,0.608,23.231,1.769
		c0.488,0.085,1.019,0.108,1.504,0.2v-0.019c0.05,0.008,0.103,0.008,0.158,0.019v-99.488c0-4.489-1.735-8.662-4.885-11.815
		L310.142,4.885C306.993,1.734,302.815,0,298.327,0H17.042c-9.215,0-16.7,7.485-16.7,16.623v478.681
		c0,9.215,7.485,16.696,16.7,16.696h297.354C293.681,500.815,275.8,485.142,261.934,466.315z" style="fill: rgb(75, 75, 75);"></path>
	<path class="st0" d="M121.138,183.8h108.115c7.693,0,13.946-6.254,13.946-13.938c0-7.692-6.254-13.946-13.946-13.946H121.138
		c-7.692,0-13.946,6.254-13.946,13.946C107.193,177.546,113.446,183.8,121.138,183.8z" style="fill: rgb(75, 75, 75);"></path>
	<path class="st0" d="M293.915,242.062H121.173c-7.719,0-13.942,6.219-13.942,13.938c0,7.642,6.222,13.942,13.942,13.942h147.693
		c5.988-7.089,12.604-13.627,19.692-19.534c1.496-1.258,2.996-2.438,4.57-3.623c1.454-1.123,2.977-2.208,4.5-3.238
		c0.262-0.15,0.523-0.346,0.792-0.477c-0.03-0.012-0.077-0.008-0.107-0.019c0.058-0.039,0.115-0.085,0.173-0.123
		C297.066,242.296,295.493,242.062,293.915,242.062z" style="fill: rgb(75, 75, 75);"></path>
	<path class="st0" d="M121.173,323.981c-7.719,0-13.942,6.223-13.942,13.942c0,7.638,6.222,13.942,13.942,13.942h111.304
		c1.096-8.385,2.97-16.481,5.335-24.385c0.35-1.104,0.584-2.254,0.961-3.342h-0.042c0.019-0.054,0.026-0.108,0.046-0.158H121.173z" style="fill: rgb(75, 75, 75);"></path>
</g>
</svg>
